<?xml version="1.0" standalone="no"?>
<!DOCTYPE svg PUBLIC "-//W3C//DTD SVG 20010904//EN"
 "http://www.w3.org/TR/2001/REC-SVG-20010904/DTD/svg10.dtd">
<svg version="1.0" xmlns="http://www.w3.org/2000/svg"
 width="605.000000pt" height="605.000000pt" viewBox="0 0 605.000000 605.000000"
 preserveAspectRatio="xMidYMid meet">
<metadata>
Created by potrace 1.14, written by Peter Selinger 2001-2017
</metadata>
<g transform="translate(0.000000,605.000000) scale(0.100000,-0.100000)"
fill="#000000" stroke="none">
<path d="M1617 5794 c-1 -1 -38 -4 -81 -8 -44 -4 -83 -9 -88 -12 -4 -3 -21 -7
-36 -10 -74 -13 -249 -100 -317 -159 -100 -87 -235 -252 -218 -269 3 -3 1 -6
-6 -6 -7 0 -9 -4 -6 -10 3 -5 2 -10 -3 -10 -10 0 -56 -129 -73 -205 -16 -71
-20 -208 -8 -290 39 -266 199 -501 430 -629 105 -59 160 -86 184 -90 13 -3 29
-7 35 -11 30 -19 337 -28 404 -13 22 6 48 11 56 13 40 6 80 18 80 24 0 4 17
13 38 20 20 7 60 24 89 37 29 14 60 27 70 29 11 1 62 24 115 49 53 25 100 46
105 46 4 1 26 9 48 20 22 11 45 19 51 20 6 0 17 6 23 13 6 8 30 19 53 26 63
18 98 35 98 46 0 5 5 3 11 -5 8 -12 12 -12 16 -2 4 10 8 9 18 -5 9 -12 10 -23
4 -35 -7 -12 -4 -20 8 -27 10 -6 13 -11 7 -11 -7 0 -14 -7 -17 -14 -4 -10 -1
-13 9 -9 7 3 14 0 14 -6 0 -6 -5 -11 -10 -11 -6 0 -5 -6 2 -14 7 -8 18 -11 23
-8 6 3 4 -2 -4 -11 -9 -12 -10 -17 -2 -17 7 0 9 -5 6 -10 -4 -6 0 -24 9 -40 8
-17 10 -32 5 -36 -5 -3 -5 -12 0 -23 8 -14 55 -220 77 -331 2 -14 6 -36 9 -50
15 -76 27 -146 30 -173 2 -18 6 -50 9 -72 9 -65 16 -126 21 -185 6 -68 7 -381
1 -435 -2 -22 -7 -71 -11 -110 -4 -38 -9 -79 -11 -90 -2 -11 -7 -40 -10 -65
-3 -25 -7 -52 -9 -60 -1 -8 -6 -35 -10 -60 -4 -25 -9 -52 -10 -60 -6 -27 -47
-224 -51 -245 -3 -11 -9 -38 -14 -60 -4 -22 -11 -51 -14 -65 -3 -14 -9 -38
-12 -55 -9 -41 -54 -149 -66 -156 -5 -3 -8 -9 -6 -12 1 -3 -13 -23 -32 -44
-40 -42 -100 -129 -100 -144 0 -5 -3 -9 -7 -9 -5 0 -13 -10 -19 -23 -6 -12
-29 -56 -50 -97 -34 -67 -53 -120 -70 -200 -2 -14 -6 -32 -8 -40 -2 -8 -7 -24
-12 -35 -9 -23 -10 -184 -1 -265 5 -51 9 -69 22 -117 2 -10 8 -34 13 -53 13
-51 150 -343 164 -348 4 -2 8 -8 8 -13 0 -17 88 -111 145 -155 79 -61 198
-115 286 -130 341 -57 659 135 766 463 37 112 37 269 -1 403 -14 52 -28 103
-31 113 -2 10 -7 27 -10 37 -3 10 -7 27 -9 37 -2 10 -11 43 -20 74 -9 31 -18
65 -20 76 -2 11 -11 43 -20 71 -8 29 -12 52 -9 52 3 0 1 6 -5 13 -11 13 -27
77 -24 91 2 4 -3 14 -9 22 -6 8 -9 14 -6 14 3 0 1 15 -4 33 -6 17 -12 39 -14
47 -2 8 -13 53 -24 100 -12 47 -23 94 -25 105 -2 11 -10 40 -17 65 -6 25 -13
52 -14 60 -2 8 -12 56 -24 105 -12 50 -24 105 -27 124 -2 19 -6 37 -9 41 -2 3
-9 33 -14 66 -6 32 -12 70 -15 84 -3 13 -8 42 -11 65 -3 22 -8 47 -10 55 -4
14 -10 54 -21 145 -2 22 -8 67 -12 100 -15 124 -5 624 13 655 2 3 6 34 10 70
4 36 8 67 10 70 2 3 6 25 9 50 3 25 8 56 11 70 3 14 8 39 10 55 3 17 8 37 10
45 2 8 7 29 10 46 7 43 82 371 94 412 5 18 10 35 10 37 -1 23 26 115 33 115 5
0 4 9 -2 20 -7 14 -7 20 0 20 5 0 10 11 10 24 0 14 4 27 10 31 5 3 6 13 3 22
-4 10 -2 14 4 10 7 -5 9 1 5 15 -3 14 -1 19 6 14 8 -5 10 -1 5 10 -5 13 -3 15
8 9 8 -5 5 2 -6 15 -11 13 -15 21 -10 18 6 -4 15 5 22 18 6 13 7 22 3 19 -11
-7 -7 22 5 32 4 4 5 2 0 -6 -6 -10 -4 -12 4 -7 7 5 10 14 7 22 -3 9 0 11 11 7
10 -4 14 -2 10 4 -4 6 6 16 23 22 17 5 30 7 30 4 0 -3 7 0 15 7 8 7 15 9 15 5
0 -4 6 -2 14 4 8 6 18 11 22 10 5 -1 12 0 17 1 39 13 160 34 257 45 44 5 252
6 305 1 60 -6 136 -15 175 -22 38 -7 56 -10 110 -18 19 -3 44 -8 55 -11 258
-62 325 -73 380 -64 56 10 68 13 83 22 6 5 12 5 12 2 0 -4 13 3 29 14 16 12
32 21 36 21 11 0 74 68 100 109 48 74 68 211 40 286 -34 94 -96 171 -170 212
-44 24 -139 50 -170 47 -67 -6 -102 -15 -205 -48 -63 -21 -122 -39 -130 -41
-8 -2 -27 -8 -43 -14 -23 -9 -144 -42 -209 -57 -49 -11 -65 -15 -93 -19 -16
-3 -37 -8 -45 -10 -8 -2 -37 -6 -65 -10 -27 -3 -51 -8 -53 -10 -2 -2 -15 0
-28 5 -14 6 -26 6 -29 0 -5 -9 -247 -5 -315 4 -19 3 -51 8 -70 11 -32 4 -97
15 -175 30 -25 5 -128 26 -145 30 -49 12 -69 16 -87 20 -13 3 -32 7 -43 10
-11 3 -29 7 -40 10 -11 3 -29 7 -41 10 -11 2 -28 6 -37 9 -9 3 -28 7 -42 10
-14 2 -37 9 -52 15 -16 6 -28 8 -28 5 0 -2 -8 0 -17 5 -10 5 -31 11 -48 14
-16 2 -62 14 -100 25 -39 12 -79 23 -90 25 -11 2 -27 7 -35 10 -8 3 -42 13
-75 22 -66 17 -65 16 -150 40 -57 16 -105 29 -150 41 -29 7 -38 10 -55 16 -16
6 -94 28 -119 33 -9 2 -32 9 -51 15 -32 10 -130 38 -155 44 -5 2 -30 8 -55 15
-25 7 -47 13 -50 13 -3 0 -20 6 -37 13 -18 8 -33 11 -33 8 0 -3 -7 0 -15 7 -8
7 -15 10 -15 6 0 -3 -10 -2 -22 3 -30 11 -203 32 -211 25z"/>
<path d="M2693 4393 c4 -3 1 -13 -6 -22 -11 -14 -10 -14 5 -2 16 12 16 31 1
31 -4 0 -3 -3 0 -7z"/>
</g>
</svg>
